<?xml version="1.0" encoding="utf-8"?>
<!-- Generator: Adobe Illustrator 19.0.0, SVG Export Plug-In . SVG Version: 6.00 Build 0)  -->
<svg version="1.1" id="Layer_1" xmlns="http://www.w3.org/2000/svg" xmlns:xlink="http://www.w3.org/1999/xlink" x="0px" y="0px"
	 viewBox="-104 -150 858 860" style="enable-background:new -104 -150 858 860;" xml:space="preserve">
<style type="text/css">
	.st0{fill:none;stroke:#FFFFFF;stroke-width:60;stroke-miterlimit:10;}
	.st1{display:none;}
</style>
<g id="_x31_7">
	<g>
		<path class="st0" d="M431.5,324.5v50.1C622.6,484.6,719.3,429.6,719.3,678H333.6h-4.8H-64.1c0-257.9,96.7-193.4,287.8-303.3v-44.2
			c-33.5-23.9-40.6-66.9-52.5-112.2H170c-4.8,0-9.5-7.2-9.5-16.7c0-2.4,1.2-2.4,1.2-4.8c-3.6-4.8-7.2-11.9-9.6-21.5
			c-3.6-14.3-15.5-41.8-4.8-55c9.5-8.4,15.5,1.2,15.5,1.2c-13.1-72.9-32.2-168.4,69.3-198.3c0-62.1,237.6-34.6,265.1,66.9
			c13.1,39.4-3.6,130.1-3.6,130.1c3.6-6,8.4-8.4,13.1-3.5c13.2,8.4-1.2,46.6-4.8,58.5c-2.4,10.7-6,17.9-9.5,23.9l1.2,2.4
			c0,8.4-4.8,16.7-9.6,16.7C473.3,258.9,462.6,303,431.5,324.5L431.5,324.5z"/>
	</g>
</g>
<g id="Layer_1_1_" class="st1">
</g>
</svg>
