<?xml version="1.0" encoding="utf-8"?>
<!-- Generator: Adobe Illustrator 19.0.0, SVG Export Plug-In . SVG Version: 6.00 Build 0)  -->
<svg version="1.1" id="Layer_1" xmlns="http://www.w3.org/2000/svg" xmlns:xlink="http://www.w3.org/1999/xlink" x="0px" y="0px"
	 viewBox="0 0 379 473" style="enable-background:new 0 0 379 473;" xml:space="preserve">
<style type="text/css">
	.st0{fill-rule:evenodd;clip-rule:evenodd;fill:#FFFFFF;}
</style>
<g id="XMLID_4_">
	<path id="XMLID_5_" class="st0" d="M187.5,118.6c36.1,0,65.2,27.2,65.2,63.3c0,34.7-29,63.6-65.2,63.6c-36.4,0-65.5-28.9-65.5-63.6
		C122,145.8,151.1,118.6,187.5,118.6L187.5,118.6z M22.3,178.4c0,87,165.2,287.9,165.2,287.9s163.2-200.9,163.2-287.9l0,0
		c0-3.5,0-9,0-12.7l0,0C350.7,77,278.1,6.1,187.5,6.1C96.7,6.1,22.3,77,22.3,165.7"/>
</g>
</svg>
