<?xml version="1.0" encoding="utf-8"?>
<!-- Generator: Adobe Illustrator 19.0.0, SVG Export Plug-In . SVG Version: 6.00 Build 0)  -->
<svg version="1.1" id="Layer_1" xmlns="http://www.w3.org/2000/svg" xmlns:xlink="http://www.w3.org/1999/xlink" x="0px" y="0px"
	 viewBox="260.6 95.7 493.1 287.7" style="enable-background:new 260.6 95.7 493.1 287.7;" xml:space="preserve">
<style type="text/css">
	.st0{clip-path:url(#SVGID_2_);fill:#FFFFFF;}
	.st1{clip-path:url(#SVGID_4_);fill:#BD0034;}
	.st2{clip-path:url(#SVGID_6_);fill:#BD0034;}
	.st3{clip-path:url(#SVGID_8_);fill:#BD0034;}
	.st4{clip-path:url(#SVGID_10_);fill:#BD0034;}
	.st5{clip-path:url(#SVGID_12_);fill:#1A237B;}
	.st6{clip-path:url(#SVGID_14_);fill:#1A237B;}
	.st7{clip-path:url(#SVGID_16_);fill:#1A237B;}
	.st8{clip-path:url(#SVGID_18_);fill:#1A237B;}
	.st9{clip-path:url(#SVGID_20_);fill:#1A237B;}
	.st10{clip-path:url(#SVGID_22_);fill:#1A237B;}
	.st11{clip-path:url(#SVGID_24_);fill:#1A237B;}
	.st12{clip-path:url(#SVGID_26_);fill:#1A237B;}
	.st13{clip-path:url(#SVGID_28_);fill:#BD0034;}
</style>
<g id="UNITED_KINGDOM_2_">
	<g id="XMLID_17_">
		<g id="XMLID_18_">
			<g>
				<defs>
					<rect id="SVGID_1_" x="260.6" y="95.7" width="493.1" height="287.7"/>
				</defs>
				<clipPath id="SVGID_2_">
					<use xlink:href="#SVGID_1_"  style="overflow:visible;"/>
				</clipPath>
				<rect id="XMLID_15_" x="260.6" y="95.7" class="st0" width="493.1" height="287.7"/>
			</g>
			<g>
				<defs>
					<rect id="SVGID_3_" x="260.6" y="95.7" width="493.1" height="287.7"/>
				</defs>
				<clipPath id="SVGID_4_">
					<use xlink:href="#SVGID_3_"  style="overflow:visible;"/>
				</clipPath>
				<polygon id="XMLID_14_" class="st1" points="590.8,199.9 753.7,108.6 753.7,95.7 742.5,95.7 556.7,199.9 				"/>
			</g>
			<g>
				<defs>
					<rect id="SVGID_5_" x="260.6" y="95.7" width="493.1" height="287.7"/>
				</defs>
				<clipPath id="SVGID_6_">
					<use xlink:href="#SVGID_5_"  style="overflow:visible;"/>
				</clipPath>
				<polygon id="XMLID_13_" class="st2" points="583.1,285.3 753.7,380.7 753.7,361.7 617.2,285.3 				"/>
			</g>
			<g>
				<defs>
					<rect id="SVGID_7_" x="260.6" y="95.7" width="493.1" height="287.7"/>
				</defs>
				<clipPath id="SVGID_8_">
					<use xlink:href="#SVGID_7_"  style="overflow:visible;"/>
				</clipPath>
				<polygon id="XMLID_12_" class="st3" points="260.6,117.7 406.5,199.9 440.6,199.9 260.6,98.6 				"/>
			</g>
			<g>
				<defs>
					<rect id="SVGID_9_" x="260.6" y="95.7" width="493.1" height="287.7"/>
				</defs>
				<clipPath id="SVGID_10_">
					<use xlink:href="#SVGID_9_"  style="overflow:visible;"/>
				</clipPath>
				<polygon id="XMLID_11_" class="st4" points="432.9,285.3 260.6,381.8 260.6,383.5 291.7,383.5 467.1,285.3 				"/>
			</g>
			<g>
				<defs>
					<rect id="SVGID_11_" x="260.6" y="95.7" width="493.1" height="287.7"/>
				</defs>
				<clipPath id="SVGID_12_">
					<use xlink:href="#SVGID_11_"  style="overflow:visible;"/>
				</clipPath>
				<polygon id="XMLID_10_" class="st5" points="719.9,95.7 547.4,95.7 547.4,192.5 				"/>
			</g>
			<g>
				<defs>
					<rect id="SVGID_13_" x="260.6" y="95.7" width="493.1" height="287.7"/>
				</defs>
				<clipPath id="SVGID_14_">
					<use xlink:href="#SVGID_13_"  style="overflow:visible;"/>
				</clipPath>
				<polygon id="XMLID_9_" class="st6" points="471.1,95.7 299.1,95.7 471.1,192.5 				"/>
			</g>
			<g>
				<defs>
					<rect id="SVGID_15_" x="260.6" y="95.7" width="493.1" height="287.7"/>
				</defs>
				<clipPath id="SVGID_16_">
					<use xlink:href="#SVGID_15_"  style="overflow:visible;"/>
				</clipPath>
				<polygon id="XMLID_8_" class="st7" points="753.7,199.9 753.7,133.8 636.6,199.9 				"/>
			</g>
			<g>
				<defs>
					<rect id="SVGID_17_" x="260.6" y="95.7" width="493.1" height="287.7"/>
				</defs>
				<clipPath id="SVGID_18_">
					<use xlink:href="#SVGID_17_"  style="overflow:visible;"/>
				</clipPath>
				<polygon id="XMLID_7_" class="st8" points="753.7,350.5 753.7,285.3 636.6,285.3 				"/>
			</g>
			<g>
				<defs>
					<rect id="SVGID_19_" x="260.6" y="95.7" width="493.1" height="287.7"/>
				</defs>
				<clipPath id="SVGID_20_">
					<use xlink:href="#SVGID_19_"  style="overflow:visible;"/>
				</clipPath>
				<polygon id="XMLID_6_" class="st9" points="308.8,383.5 471.1,383.5 471.1,292.6 				"/>
			</g>
			<g>
				<defs>
					<rect id="SVGID_21_" x="260.6" y="95.7" width="493.1" height="287.7"/>
				</defs>
				<clipPath id="SVGID_22_">
					<use xlink:href="#SVGID_21_"  style="overflow:visible;"/>
				</clipPath>
				<polygon id="XMLID_5_" class="st10" points="547.4,383.5 710,383.5 547.4,292.6 				"/>
			</g>
			<g>
				<defs>
					<rect id="SVGID_23_" x="260.6" y="95.7" width="493.1" height="287.7"/>
				</defs>
				<clipPath id="SVGID_24_">
					<use xlink:href="#SVGID_23_"  style="overflow:visible;"/>
				</clipPath>
				<polygon id="XMLID_4_" class="st11" points="260.6,285.3 260.6,353.4 381.8,285.3 				"/>
			</g>
			<g>
				<defs>
					<rect id="SVGID_25_" x="260.6" y="95.7" width="493.1" height="287.7"/>
				</defs>
				<clipPath id="SVGID_26_">
					<use xlink:href="#SVGID_25_"  style="overflow:visible;"/>
				</clipPath>
				<polygon id="XMLID_3_" class="st12" points="260.6,199.9 381.8,199.9 260.6,131.5 				"/>
			</g>
			<g>
				<defs>
					<rect id="SVGID_27_" x="260.6" y="95.7" width="493.1" height="287.7"/>
				</defs>
				<clipPath id="SVGID_28_">
					<use xlink:href="#SVGID_27_"  style="overflow:visible;"/>
				</clipPath>
				<polygon id="XMLID_2_" class="st13" points="486.3,95.7 486.3,216.9 260.6,216.9 260.6,268.2 486.3,268.2 486.3,383.5 
					532,383.5 532,268.2 753.7,268.2 753.7,216.9 532,216.9 532,95.7 				"/>
			</g>
		</g>
	</g>
</g>
</svg>
